<svg width="32" height="32" viewBox="0 0 32 32" fill="none" xmlns="http://www.w3.org/2000/svg">
<path d="M31.4054 13.117C31.5922 14.1908 31.6852 15.2789 31.6834 16.369C31.6834 21.237 29.9434 25.353 26.9154 28.139H26.9194C24.2714 30.585 20.6314 32.001 16.3154 32.001C12.072 32.001 8.0023 30.3152 5.00172 27.3147C2.00114 24.3141 0.31543 20.2444 0.31543 16.001C0.31543 11.7575 2.00114 7.68783 5.00172 4.68725C8.0023 1.68667 12.072 0.000956005 16.3154 0.000956005C20.2869 -0.0432719 24.1219 1.44859 27.0194 4.16496L22.4514 8.73296C20.7998 7.15946 18.5963 6.29758 16.3154 6.33296C12.1414 6.33296 8.59543 9.14896 7.33143 12.941C6.66242 14.9282 6.66242 17.0798 7.33143 19.067H7.33743C8.60743 22.853 12.1474 25.669 16.3214 25.669C18.4774 25.669 20.3294 25.117 21.7654 24.141H21.7594C22.5934 23.5887 23.3068 22.8732 23.8564 22.0375C24.4061 21.2019 24.7806 20.2634 24.9574 19.279H16.3154V13.119L31.4054 13.117Z" fill="white"/>
</svg>
