<svg width="33" height="32" viewBox="0 0 33 32" fill="none" xmlns="http://www.w3.org/2000/svg">
<path d="M16.3174 0.000480652C11.9754 0.000480652 11.4294 0.0204807 9.72338 0.0964807C8.01738 0.176481 6.85538 0.444481 5.83738 0.840481C4.76907 1.24113 3.80166 1.87128 3.00338 2.68648C2.18818 3.48476 1.55803 4.45217 1.15738 5.52048C0.761383 6.53648 0.491383 7.70048 0.413383 9.40048C0.337383 11.1105 0.317383 11.6545 0.317383 16.0025C0.317383 20.3465 0.337383 20.8905 0.413383 22.5965C0.493383 24.3005 0.761383 25.4625 1.15738 26.4805C1.56738 27.5325 2.11338 28.4245 3.00338 29.3145C3.89138 30.2045 4.78338 30.7525 5.83538 31.1605C6.85538 31.5565 8.01538 31.8265 9.71938 31.9045C11.4274 31.9805 11.9714 32.0005 16.3174 32.0005C20.6634 32.0005 21.2054 31.9805 22.9134 31.9045C24.6154 31.8245 25.7814 31.5565 26.7994 31.1605C27.867 30.7596 28.8337 30.1294 29.6314 29.3145C30.5214 28.4245 31.0674 27.5325 31.4774 26.4805C31.8714 25.4625 32.1414 24.3005 32.2214 22.5965C32.2974 20.8905 32.3174 20.3465 32.3174 16.0005C32.3174 11.6545 32.2974 11.1105 32.2214 9.40248C32.1414 7.70048 31.8714 6.53648 31.4774 5.52048C31.0767 4.45217 30.4466 3.48476 29.6314 2.68648C28.8331 1.87128 27.8657 1.24113 26.7974 0.840481C25.7774 0.444481 24.6134 0.174481 22.9114 0.0964807C21.2034 0.0204807 20.6614 0.000480652 16.3134 0.000480652H16.3174ZM14.8834 2.88448H16.3194C20.5914 2.88448 21.0974 2.89848 22.7834 2.97648C24.3434 3.04648 25.1914 3.30848 25.7554 3.52648C26.5014 3.81648 27.0354 4.16448 27.5954 4.72448C28.1554 5.28448 28.5014 5.81648 28.7914 6.56448C29.0114 7.12648 29.2714 7.97448 29.3414 9.53448C29.4194 11.2205 29.4354 11.7265 29.4354 15.9965C29.4354 20.2665 29.4194 20.7745 29.3414 22.4605C29.2714 24.0205 29.0094 24.8665 28.7914 25.4305C28.533 26.1243 28.1239 26.7521 27.5934 27.2685C27.0334 27.8285 26.5014 28.1745 25.7534 28.4645C25.1934 28.6845 24.3454 28.9445 22.7834 29.0165C21.0974 29.0925 20.5914 29.1105 16.3194 29.1105C12.0474 29.1105 11.5394 29.0925 9.85338 29.0165C8.29338 28.9445 7.44738 28.6845 6.88338 28.4645C6.18905 28.207 5.56058 27.7985 5.04338 27.2685C4.51193 26.7517 4.10204 26.1232 3.84338 25.4285C3.62538 24.8665 3.36338 24.0185 3.29338 22.4585C3.21738 20.7725 3.20138 20.2665 3.20138 15.9925C3.20138 11.7185 3.21738 11.2165 3.29338 9.53048C3.36538 7.97048 3.62538 7.12248 3.84538 6.55848C4.13538 5.81248 4.48338 5.27848 5.04338 4.71848C5.60338 4.15848 6.13538 3.81248 6.88338 3.52248C7.44738 3.30248 8.29338 3.04248 9.85338 2.97048C11.3294 2.90248 11.9014 2.88248 14.8834 2.88048V2.88448ZM24.8594 5.54048C24.6072 5.54048 24.3576 5.59014 24.1246 5.68663C23.8917 5.78312 23.68 5.92455 23.5017 6.10284C23.3234 6.28112 23.182 6.49278 23.0855 6.72573C22.989 6.95867 22.9394 7.20834 22.9394 7.46048C22.9394 7.71262 22.989 7.96229 23.0855 8.19523C23.182 8.42818 23.3234 8.63984 23.5017 8.81813C23.68 8.99641 23.8917 9.13784 24.1246 9.23433C24.3576 9.33082 24.6072 9.38048 24.8594 9.38048C25.3686 9.38048 25.857 9.1782 26.217 8.81813C26.5771 8.45806 26.7794 7.9697 26.7794 7.46048C26.7794 6.95126 26.5771 6.46291 26.217 6.10284C25.857 5.74277 25.3686 5.54048 24.8594 5.54048ZM16.3194 7.78448C15.2295 7.76748 14.1472 7.96745 13.1353 8.37276C12.1235 8.77807 11.2024 9.38062 10.4257 10.1453C9.64896 10.91 9.03211 11.8216 8.61106 12.827C8.19002 13.8324 7.97318 14.9115 7.97318 16.0015C7.97318 17.0915 8.19002 18.1706 8.61106 19.176C9.03211 20.1813 9.64896 21.0929 10.4257 21.8576C11.2024 22.6223 12.1235 23.2249 13.1353 23.6302C14.1472 24.0355 15.2295 24.2355 16.3194 24.2185C18.4765 24.1848 20.5338 23.3043 22.0473 21.767C23.5609 20.2297 24.4092 18.1588 24.4092 16.0015C24.4092 13.8441 23.5609 11.7733 22.0473 10.236C20.5338 8.69865 18.4765 7.81813 16.3194 7.78448ZM16.3194 10.6665C17.0199 10.6665 17.7135 10.8044 18.3606 11.0725C19.0078 11.3406 19.5958 11.7335 20.0911 12.2288C20.5864 12.7241 20.9793 13.3121 21.2474 13.9592C21.5154 14.6064 21.6534 15.3 21.6534 16.0005C21.6534 16.701 21.5154 17.3946 21.2474 18.0417C20.9793 18.6889 20.5864 19.2769 20.0911 19.7722C19.5958 20.2675 19.0078 20.6604 18.3606 20.9285C17.7135 21.1965 17.0199 21.3345 16.3194 21.3345C14.9047 21.3345 13.548 20.7725 12.5477 19.7722C11.5474 18.7719 10.9854 17.4151 10.9854 16.0005C10.9854 14.5858 11.5474 13.2291 12.5477 12.2288C13.548 11.2285 14.9047 10.6665 16.3194 10.6665Z" fill="white"/>
</svg>
