<svg width="33" height="32" viewBox="0 0 33 32" fill="none" xmlns="http://www.w3.org/2000/svg">
<path d="M0.317383 2.29248C0.317383 1.02648 1.36938 0.000480652 2.66738 0.000480652H29.9674C31.2654 0.000480652 32.3174 1.02648 32.3174 2.29248V29.7085C32.3174 30.9745 31.2654 32.0005 29.9674 32.0005H2.66738C1.36938 32.0005 0.317383 30.9745 0.317383 29.7085V2.29248ZM10.2034 26.7885V12.3385H5.40138V26.7885H10.2034ZM7.80338 10.3645C9.47738 10.3645 10.5194 9.25648 10.5194 7.86848C10.4894 6.45048 9.47938 5.37248 7.83538 5.37248C6.19138 5.37248 5.11738 6.45248 5.11738 7.86848C5.11738 9.25648 6.15938 10.3645 7.77138 10.3645H7.80338ZM17.6194 26.7885V18.7185C17.6194 18.2865 17.6514 17.8545 17.7794 17.5465C18.1254 16.6845 18.9154 15.7905 20.2434 15.7905C21.9814 15.7905 22.6754 17.1145 22.6754 19.0585V26.7885H27.4774V18.5005C27.4774 14.0605 25.1094 11.9965 21.9494 11.9965C19.4014 11.9965 18.2594 13.3965 17.6194 14.3825V14.4325H17.5874L17.6194 14.3825V12.3385H12.8194C12.8794 13.6945 12.8194 26.7885 12.8194 26.7885H17.6194Z" fill="white"/>
</svg>
