<svg width="29" height="32" viewBox="0 0 29 32" fill="none" xmlns="http://www.w3.org/2000/svg">
<path d="M16.3154 0.000476837H20.2754C20.5634 1.43048 21.3554 3.23448 22.7454 5.02448C24.1054 6.77848 25.9094 8.00048 28.3154 8.00048V12.0005C24.8094 12.0005 22.1754 10.3725 20.3154 8.34248V22.0005C20.3154 23.9783 19.7289 25.9117 18.6301 27.5562C17.5313 29.2007 15.9695 30.4824 14.1423 31.2393C12.315 31.9961 10.3043 32.1942 8.36453 31.8083C6.42472 31.4225 4.64289 30.4701 3.24437 29.0715C1.84584 27.673 0.893434 25.8912 0.507581 23.9514C0.121729 22.0116 0.319763 20.0009 1.07664 18.1736C1.83352 16.3464 3.11524 14.7846 4.75973 13.6858C6.40422 12.587 8.33762 12.0005 10.3154 12.0005V16.0005C9.12875 16.0005 7.96871 16.3524 6.98201 17.0117C5.99532 17.6709 5.22628 18.608 4.77216 19.7044C4.31803 20.8007 4.19921 22.0071 4.43072 23.171C4.66223 24.3349 5.23368 25.404 6.07279 26.2431C6.91191 27.0822 7.98101 27.6537 9.14489 27.8852C10.3088 28.1167 11.5152 27.9979 12.6115 27.5438C13.7079 27.0896 14.645 26.3206 15.3043 25.3339C15.9635 24.3472 16.3154 23.1872 16.3154 22.0005V0.000476837Z" fill="white"/>
</svg>
