<svg width="33" height="22" viewBox="0 0 33 22" fill="none" xmlns="http://www.w3.org/2000/svg">
<path d="M16.4194 0.000480652H16.5974C18.2414 0.00635306 26.5714 0.0650775 28.8174 0.656233C29.4964 0.83665 30.1151 1.18832 30.6117 1.67609C31.1083 2.16386 31.4654 2.77066 31.6474 3.43584C31.8494 4.17968 31.9914 5.16429 32.0874 6.18021L32.1074 6.38379L32.1514 6.89273L32.1674 7.09631C32.2974 8.88543 32.3134 10.561 32.3154 10.9271V11.0739C32.3134 11.4536 32.2954 13.2428 32.1514 15.1063L32.1354 15.3118L32.1174 15.5154C32.0174 16.6351 31.8694 17.7469 31.6474 18.5651C31.4654 19.2303 31.1083 19.8371 30.6117 20.3249C30.1151 20.8126 29.4964 21.1643 28.8174 21.3447C26.4974 21.9555 17.6794 21.9985 16.4574 22.0005H16.1734C15.5554 22.0005 12.9994 21.9887 10.3194 21.8987L9.97938 21.8869L9.80538 21.8791L9.46338 21.8654L9.12138 21.8517C6.90138 21.7558 4.78738 21.6012 3.81338 21.3428C3.13464 21.1625 2.51608 20.8112 2.01948 20.3237C1.52289 19.8363 1.16563 19.2299 0.983383 18.5651C0.761383 17.7489 0.613383 16.6351 0.513383 15.5154L0.497383 15.3098L0.481383 15.1063C0.38211 13.7799 0.327413 12.4507 0.317383 11.1209L0.317383 10.8801C0.321383 10.4592 0.337383 9.00484 0.445383 7.39971L0.459383 7.1981L0.465383 7.09631L0.481383 6.89273L0.525383 6.38379L0.545383 6.18021C0.641383 5.16429 0.783383 4.17772 0.985383 3.43584C1.16732 2.77066 1.52445 2.16386 2.02106 1.67609C2.51768 1.18832 3.1364 0.83665 3.81538 0.656233C4.78938 0.401762 6.90338 0.245164 9.12338 0.147291L9.46338 0.133588L9.80738 0.121844L9.97938 0.115972L10.3214 0.102269C12.2248 0.0423776 14.129 0.00909696 16.0334 0.00243821L16.4194 0.000480652ZM13.1174 6.28396V15.715L21.4314 11.0015L13.1174 6.28396Z" fill="white"/>
</svg>
